<mxfile host="app.diagrams.net" modified="2023-01-25T00:20:20.053Z" agent="5.0 (Windows)" etag="qLsX85bqCGswVDv-_ljM" version="20.8.9" type="github">
  <diagram name="Página-1" id="QJNi_6TOPLpKMk3bFueV">
    <mxGraphModel dx="866" dy="452" grid="1" gridSize="10" guides="1" tooltips="1" connect="1" arrows="1" fold="1" page="1" pageScale="1" pageWidth="827" pageHeight="1169" math="0" shadow="0">
      <root>
        <mxCell id="0" />
        <mxCell id="1" parent="0" />
        <mxCell id="1I9jYWh53UhH08uPcDKw-1" value="&lt;font style=&quot;font-size: 11px;&quot;&gt;Totem - Diagrama de Estado de Maquina&lt;br&gt;&lt;/font&gt;" style="shape=umlFrame;whiteSpace=wrap;html=1;width=120;height=30;boundedLbl=1;verticalAlign=middle;align=left;spacingLeft=5;movable=1;resizable=1;rotatable=1;deletable=1;editable=1;connectable=1;" vertex="1" parent="1">
          <mxGeometry x="20" y="140" width="1000" height="570" as="geometry" />
        </mxCell>
        <mxCell id="1I9jYWh53UhH08uPcDKw-2" style="edgeStyle=orthogonalEdgeStyle;rounded=0;orthogonalLoop=1;jettySize=auto;html=1;fontSize=11;" edge="1" parent="1" source="1I9jYWh53UhH08uPcDKw-3" target="1I9jYWh53UhH08uPcDKw-8">
          <mxGeometry relative="1" as="geometry" />
        </mxCell>
        <mxCell id="1I9jYWh53UhH08uPcDKw-3" value="" style="ellipse;fillColor=strokeColor;" vertex="1" parent="1">
          <mxGeometry x="155" y="155" width="30" height="30" as="geometry" />
        </mxCell>
        <mxCell id="1I9jYWh53UhH08uPcDKw-4" value="" style="edgeStyle=orthogonalEdgeStyle;rounded=0;orthogonalLoop=1;jettySize=auto;html=1;fontSize=11;" edge="1" parent="1" source="1I9jYWh53UhH08uPcDKw-6" target="1I9jYWh53UhH08uPcDKw-10">
          <mxGeometry relative="1" as="geometry" />
        </mxCell>
        <mxCell id="1I9jYWh53UhH08uPcDKw-5" style="edgeStyle=orthogonalEdgeStyle;rounded=0;orthogonalLoop=1;jettySize=auto;html=1;fontSize=11;" edge="1" parent="1" source="1I9jYWh53UhH08uPcDKw-6" target="1I9jYWh53UhH08uPcDKw-14">
          <mxGeometry relative="1" as="geometry" />
        </mxCell>
        <mxCell id="1I9jYWh53UhH08uPcDKw-6" value="" style="rhombus;movable=1;resizable=1;rotatable=1;deletable=1;editable=1;connectable=1;" vertex="1" parent="1">
          <mxGeometry x="150" y="390" width="40" height="40" as="geometry" />
        </mxCell>
        <mxCell id="1I9jYWh53UhH08uPcDKw-7" style="edgeStyle=orthogonalEdgeStyle;rounded=0;orthogonalLoop=1;jettySize=auto;html=1;fontSize=11;" edge="1" parent="1" source="1I9jYWh53UhH08uPcDKw-8" target="1I9jYWh53UhH08uPcDKw-6">
          <mxGeometry relative="1" as="geometry" />
        </mxCell>
        <mxCell id="1I9jYWh53UhH08uPcDKw-8" value="Exibe a Tela de login" style="html=1;align=center;verticalAlign=middle;rounded=1;absoluteArcSize=1;arcSize=10;dashed=0;fontSize=11;fillColor=#ffe6cc;strokeColor=#d79b00;" vertex="1" parent="1">
          <mxGeometry x="100" y="270" width="140" height="40" as="geometry" />
        </mxCell>
        <mxCell id="1I9jYWh53UhH08uPcDKw-9" style="edgeStyle=orthogonalEdgeStyle;rounded=0;orthogonalLoop=1;jettySize=auto;html=1;entryX=-0.056;entryY=0.742;entryDx=0;entryDy=0;entryPerimeter=0;" edge="1" parent="1" source="1I9jYWh53UhH08uPcDKw-10" target="1I9jYWh53UhH08uPcDKw-39">
          <mxGeometry relative="1" as="geometry">
            <Array as="points">
              <mxPoint x="611" y="550" />
            </Array>
          </mxGeometry>
        </mxCell>
        <mxCell id="1I9jYWh53UhH08uPcDKw-10" value="Acessa Dados" style="html=1;align=center;verticalAlign=middle;rounded=1;absoluteArcSize=1;arcSize=10;dashed=0;fontSize=11;fillColor=#f8cecc;strokeColor=#b85450;" vertex="1" parent="1">
          <mxGeometry x="100" y="530" width="140" height="40" as="geometry" />
        </mxCell>
        <mxCell id="1I9jYWh53UhH08uPcDKw-11" value="Login como Admin" style="text;html=1;align=center;verticalAlign=middle;resizable=0;points=[];autosize=1;strokeColor=none;fillColor=none;fontSize=12;" vertex="1" parent="1">
          <mxGeometry x="170" y="470" width="130" height="30" as="geometry" />
        </mxCell>
        <mxCell id="1I9jYWh53UhH08uPcDKw-12" value="Login como Usuário" style="text;html=1;align=center;verticalAlign=middle;resizable=0;points=[];autosize=1;strokeColor=none;fillColor=none;fontSize=12;" vertex="1" parent="1">
          <mxGeometry x="180" y="380" width="140" height="30" as="geometry" />
        </mxCell>
        <mxCell id="1I9jYWh53UhH08uPcDKw-13" style="edgeStyle=orthogonalEdgeStyle;rounded=0;orthogonalLoop=1;jettySize=auto;html=1;fontSize=12;" edge="1" parent="1" source="1I9jYWh53UhH08uPcDKw-14" target="1I9jYWh53UhH08uPcDKw-18">
          <mxGeometry relative="1" as="geometry" />
        </mxCell>
        <mxCell id="1I9jYWh53UhH08uPcDKw-14" value="&lt;div&gt;Exibe as opções de&lt;/div&gt;&lt;div&gt;&amp;nbsp;experimentos&lt;/div&gt;" style="html=1;align=center;verticalAlign=middle;rounded=1;absoluteArcSize=1;arcSize=10;dashed=0;fontSize=11;fillColor=#fff2cc;strokeColor=#d6b656;" vertex="1" parent="1">
          <mxGeometry x="320" y="390" width="140" height="40" as="geometry" />
        </mxCell>
        <mxCell id="1I9jYWh53UhH08uPcDKw-15" style="edgeStyle=orthogonalEdgeStyle;rounded=0;orthogonalLoop=1;jettySize=auto;html=1;fontSize=12;" edge="1" parent="1" source="1I9jYWh53UhH08uPcDKw-18" target="1I9jYWh53UhH08uPcDKw-20">
          <mxGeometry relative="1" as="geometry">
            <Array as="points">
              <mxPoint x="510" y="310" />
            </Array>
          </mxGeometry>
        </mxCell>
        <mxCell id="1I9jYWh53UhH08uPcDKw-16" style="edgeStyle=orthogonalEdgeStyle;rounded=0;orthogonalLoop=1;jettySize=auto;html=1;fontSize=12;" edge="1" parent="1" source="1I9jYWh53UhH08uPcDKw-18" target="1I9jYWh53UhH08uPcDKw-22">
          <mxGeometry relative="1" as="geometry" />
        </mxCell>
        <mxCell id="1I9jYWh53UhH08uPcDKw-17" style="edgeStyle=orthogonalEdgeStyle;rounded=0;orthogonalLoop=1;jettySize=auto;html=1;fontSize=12;" edge="1" parent="1" source="1I9jYWh53UhH08uPcDKw-18" target="1I9jYWh53UhH08uPcDKw-24">
          <mxGeometry relative="1" as="geometry">
            <Array as="points">
              <mxPoint x="510" y="510" />
            </Array>
          </mxGeometry>
        </mxCell>
        <mxCell id="1I9jYWh53UhH08uPcDKw-18" value="" style="rhombus;movable=1;resizable=1;rotatable=1;deletable=1;editable=1;connectable=1;" vertex="1" parent="1">
          <mxGeometry x="490" y="390" width="40" height="40" as="geometry" />
        </mxCell>
        <mxCell id="1I9jYWh53UhH08uPcDKw-19" style="edgeStyle=orthogonalEdgeStyle;rounded=0;orthogonalLoop=1;jettySize=auto;html=1;fontSize=12;" edge="1" parent="1" source="1I9jYWh53UhH08uPcDKw-20" target="1I9jYWh53UhH08uPcDKw-41">
          <mxGeometry relative="1" as="geometry">
            <Array as="points">
              <mxPoint x="710" y="310" />
              <mxPoint x="710" y="390" />
            </Array>
          </mxGeometry>
        </mxCell>
        <mxCell id="1I9jYWh53UhH08uPcDKw-20" value="&lt;div&gt;Inicia Experimento 1:&lt;/div&gt;&lt;div&gt;Smartphone&lt;/div&gt;" style="html=1;align=center;verticalAlign=middle;rounded=1;absoluteArcSize=1;arcSize=10;dashed=0;fontSize=11;fillColor=#dae8fc;strokeColor=#6c8ebf;" vertex="1" parent="1">
          <mxGeometry x="560" y="290" width="140" height="40" as="geometry" />
        </mxCell>
        <mxCell id="1I9jYWh53UhH08uPcDKw-21" style="edgeStyle=orthogonalEdgeStyle;rounded=0;orthogonalLoop=1;jettySize=auto;html=1;" edge="1" parent="1" source="1I9jYWh53UhH08uPcDKw-22" target="1I9jYWh53UhH08uPcDKw-41">
          <mxGeometry relative="1" as="geometry" />
        </mxCell>
        <mxCell id="1I9jYWh53UhH08uPcDKw-22" value="Inicia Experimento 2:&lt;div&gt;Protoboard&lt;br&gt;&lt;/div&gt;" style="html=1;align=center;verticalAlign=middle;rounded=1;absoluteArcSize=1;arcSize=10;dashed=0;fontSize=11;fillColor=#d5e8d4;strokeColor=#82b366;" vertex="1" parent="1">
          <mxGeometry x="560" y="390" width="140" height="40" as="geometry" />
        </mxCell>
        <mxCell id="1I9jYWh53UhH08uPcDKw-23" style="edgeStyle=orthogonalEdgeStyle;rounded=0;orthogonalLoop=1;jettySize=auto;html=1;fontSize=12;" edge="1" parent="1" source="1I9jYWh53UhH08uPcDKw-24" target="1I9jYWh53UhH08uPcDKw-41">
          <mxGeometry relative="1" as="geometry">
            <mxPoint x="860" y="430.0000000000001" as="targetPoint" />
            <Array as="points">
              <mxPoint x="710" y="510" />
              <mxPoint x="710" y="430" />
            </Array>
          </mxGeometry>
        </mxCell>
        <mxCell id="1I9jYWh53UhH08uPcDKw-24" value="Inicia Experimento 3:&lt;div&gt;Música&lt;br&gt;&lt;/div&gt;" style="html=1;align=center;verticalAlign=middle;rounded=1;absoluteArcSize=1;arcSize=10;dashed=0;fontSize=11;fillColor=#e1d5e7;strokeColor=#9673a6;" vertex="1" parent="1">
          <mxGeometry x="560" y="490" width="140" height="40" as="geometry" />
        </mxCell>
        <mxCell id="1I9jYWh53UhH08uPcDKw-25" value="" style="ellipse;html=1;shape=endState;fillColor=strokeColor;fontSize=12;" vertex="1" parent="1">
          <mxGeometry x="815" y="635" width="30" height="30" as="geometry" />
        </mxCell>
        <mxCell id="1I9jYWh53UhH08uPcDKw-26" style="edgeStyle=orthogonalEdgeStyle;rounded=0;orthogonalLoop=1;jettySize=auto;html=1;entryX=-0.5;entryY=0.25;entryDx=0;entryDy=0;entryPerimeter=0;" edge="1" parent="1" source="1I9jYWh53UhH08uPcDKw-27" target="1I9jYWh53UhH08uPcDKw-39">
          <mxGeometry relative="1" as="geometry" />
        </mxCell>
        <mxCell id="1I9jYWh53UhH08uPcDKw-27" value="Avaliação" style="html=1;align=center;verticalAlign=middle;rounded=1;absoluteArcSize=1;arcSize=10;dashed=0;fontSize=11;fillColor=#f8cecc;strokeColor=#b85450;" vertex="1" parent="1">
          <mxGeometry x="760" y="530" width="140" height="40" as="geometry" />
        </mxCell>
        <mxCell id="1I9jYWh53UhH08uPcDKw-28" style="edgeStyle=elbowEdgeStyle;rounded=0;orthogonalLoop=1;jettySize=auto;html=1;fontSize=12;" edge="1" parent="1" source="1I9jYWh53UhH08uPcDKw-30" target="1I9jYWh53UhH08uPcDKw-14">
          <mxGeometry relative="1" as="geometry">
            <mxPoint x="440" y="260" as="targetPoint" />
            <Array as="points">
              <mxPoint x="670" y="250" />
            </Array>
          </mxGeometry>
        </mxCell>
        <mxCell id="1I9jYWh53UhH08uPcDKw-29" style="edgeStyle=elbowEdgeStyle;rounded=0;orthogonalLoop=1;jettySize=auto;html=1;fontSize=12;" edge="1" parent="1" source="1I9jYWh53UhH08uPcDKw-30" target="1I9jYWh53UhH08uPcDKw-27">
          <mxGeometry relative="1" as="geometry" />
        </mxCell>
        <mxCell id="1I9jYWh53UhH08uPcDKw-30" value="" style="rhombus;movable=1;resizable=1;rotatable=1;deletable=1;editable=1;connectable=1;" vertex="1" parent="1">
          <mxGeometry x="810" y="390" width="40" height="40" as="geometry" />
        </mxCell>
        <mxCell id="1I9jYWh53UhH08uPcDKw-31" value="&lt;div&gt;Se todos os experimentos&lt;/div&gt;&lt;div&gt;&amp;nbsp;foram concluídos&lt;/div&gt;" style="text;html=1;align=center;verticalAlign=middle;resizable=0;points=[];autosize=1;strokeColor=none;fillColor=none;fontSize=12;" vertex="1" parent="1">
          <mxGeometry x="835" y="460" width="170" height="40" as="geometry" />
        </mxCell>
        <mxCell id="1I9jYWh53UhH08uPcDKw-32" value="&lt;div&gt;Se ainda existem experimentos&lt;/div&gt;&lt;div&gt;&amp;nbsp;a concluir&lt;br&gt;&lt;/div&gt;" style="text;html=1;align=center;verticalAlign=middle;resizable=0;points=[];autosize=1;strokeColor=none;fillColor=none;fontSize=12;" vertex="1" parent="1">
          <mxGeometry x="820" y="320" width="200" height="40" as="geometry" />
        </mxCell>
        <mxCell id="1I9jYWh53UhH08uPcDKw-33" style="edgeStyle=orthogonalEdgeStyle;rounded=0;orthogonalLoop=1;jettySize=auto;html=1;" edge="1" parent="1" source="1I9jYWh53UhH08uPcDKw-35" target="1I9jYWh53UhH08uPcDKw-25">
          <mxGeometry relative="1" as="geometry" />
        </mxCell>
        <mxCell id="1I9jYWh53UhH08uPcDKw-34" style="edgeStyle=orthogonalEdgeStyle;rounded=0;orthogonalLoop=1;jettySize=auto;html=1;" edge="1" parent="1" source="1I9jYWh53UhH08uPcDKw-35" target="1I9jYWh53UhH08uPcDKw-8">
          <mxGeometry relative="1" as="geometry">
            <Array as="points">
              <mxPoint x="50" y="650" />
              <mxPoint x="50" y="290" />
            </Array>
          </mxGeometry>
        </mxCell>
        <mxCell id="1I9jYWh53UhH08uPcDKw-35" value="" style="rhombus;movable=1;resizable=1;rotatable=1;deletable=1;editable=1;connectable=1;" vertex="1" parent="1">
          <mxGeometry x="610" y="630" width="40" height="40" as="geometry" />
        </mxCell>
        <mxCell id="1I9jYWh53UhH08uPcDKw-36" value="Desliga o Totem" style="text;html=1;align=center;verticalAlign=middle;resizable=0;points=[];autosize=1;strokeColor=none;fillColor=none;fontSize=12;" vertex="1" parent="1">
          <mxGeometry x="670" y="622.5" width="110" height="30" as="geometry" />
        </mxCell>
        <mxCell id="1I9jYWh53UhH08uPcDKw-37" value="Volta a tela de login" style="text;html=1;align=center;verticalAlign=middle;resizable=0;points=[];autosize=1;strokeColor=none;fillColor=none;fontSize=12;" vertex="1" parent="1">
          <mxGeometry x="460" y="622.5" width="130" height="30" as="geometry" />
        </mxCell>
        <mxCell id="1I9jYWh53UhH08uPcDKw-38" style="edgeStyle=elbowEdgeStyle;rounded=0;orthogonalLoop=1;jettySize=auto;html=1;entryX=0.5;entryY=0;entryDx=0;entryDy=0;fontSize=12;" edge="1" parent="1" source="1I9jYWh53UhH08uPcDKw-39" target="1I9jYWh53UhH08uPcDKw-35">
          <mxGeometry relative="1" as="geometry" />
        </mxCell>
        <mxCell id="1I9jYWh53UhH08uPcDKw-39" value="" style="html=1;points=[];perimeter=orthogonalPerimeter;fillColor=strokeColor;fontSize=12;rotation=90;" vertex="1" parent="1">
          <mxGeometry x="627.5" y="555" width="5" height="80" as="geometry" />
        </mxCell>
        <mxCell id="1I9jYWh53UhH08uPcDKw-40" style="edgeStyle=orthogonalEdgeStyle;rounded=0;orthogonalLoop=1;jettySize=auto;html=1;fontSize=12;" edge="1" parent="1" source="1I9jYWh53UhH08uPcDKw-41" target="1I9jYWh53UhH08uPcDKw-30">
          <mxGeometry relative="1" as="geometry" />
        </mxCell>
        <mxCell id="1I9jYWh53UhH08uPcDKw-41" value="" style="html=1;points=[];perimeter=orthogonalPerimeter;fillColor=strokeColor;fontSize=12;rotation=0;" vertex="1" parent="1">
          <mxGeometry x="755" y="370" width="5" height="80" as="geometry" />
        </mxCell>
      </root>
    </mxGraphModel>
  </diagram>
</mxfile>
